<svg id="e06d4a15-5610-4020-bba9-b790c9ebea7e" data-name="Lag 1" xmlns="http://www.w3.org/2000/svg" viewBox="0 0 460.18 154.47"><defs><style>.a5fe41f8-a7ec-4f2f-8a83-1e5b1059f02f,.a8c6b3c5-9c8a-45ef-b225-6fae7ee20a53,.a9ba680a-19cb-482d-b5e0-2c6af7a835dd,.b2fe8eec-801c-494c-9b89-0a1f544a9bd9,.eced384e-f16c-4753-805e-68fda2fcea06,.f7512d00-83be-4d02-9733-bee2e3174e14{fill:none;}.a5fe41f8-a7ec-4f2f-8a83-1e5b1059f02f{stroke:#000;}.a5fe41f8-a7ec-4f2f-8a83-1e5b1059f02f,.a8c6b3c5-9c8a-45ef-b225-6fae7ee20a53,.a9ba680a-19cb-482d-b5e0-2c6af7a835dd,.eced384e-f16c-4753-805e-68fda2fcea06{stroke-miterlimit:10;}.f80fc5e4-8dc9-4c3b-a60c-96cd536b1142{fill:#ffcf40;}.b2fe8eec-801c-494c-9b89-0a1f544a9bd9{stroke:#ffcf40;}.b2fe8eec-801c-494c-9b89-0a1f544a9bd9,.f7512d00-83be-4d02-9733-bee2e3174e14{stroke-linecap:round;stroke-linejoin:round;stroke-width:0.5px;}.b5d2ad33-ad6a-40eb-9972-35b949538910{fill:#ed9966;}.e414f724-5dd6-4e4a-8a55-a042bc285edf{fill:#c95957;}.a9ba680a-19cb-482d-b5e0-2c6af7a835dd{stroke:#c95957;}.f9f1fa23-0953-45ee-a585-f15505b47826{fill:#fed267;}.eced384e-f16c-4753-805e-68fda2fcea06,.f7512d00-83be-4d02-9733-bee2e3174e14{stroke:#fed267;}.a9c09158-9683-4d8c-8511-76cd18c96fb4{fill:#d6d6d6;}.a8c6b3c5-9c8a-45ef-b225-6fae7ee20a53{stroke:#d6d6d6;}</style></defs><g id="bc80c238-711a-4cf7-83f7-174c67c5f8e0" data-name="tip-line"><line class="a5fe41f8-a7ec-4f2f-8a83-1e5b1059f02f" x1="105.69" y1="101.01" x2="108.26" y2="113.26"/><path class="a5fe41f8-a7ec-4f2f-8a83-1e5b1059f02f" d="M262.5,295.54c-1,4.15-1.51,8.38-2.6,12.52" transform="translate(-149.05 -195.68)"/></g><g id="b1cf49ef-e177-4822-bb4b-574533ba60b7" data-name="pencil-outline"><path class="f80fc5e4-8dc9-4c3b-a60c-96cd536b1142" d="M247.27,213.86l16.12-.76L266,297.42l-7.28,17.29a.39.39,0,0,0-.38-.12l-8.13-15.87h0C249.32,274.07,248.14,238.22,247.27,213.86Z" transform="translate(-149.05 -195.68)"/><path class="f80fc5e4-8dc9-4c3b-a60c-96cd536b1142" d="M247.27,213.86l.33,9.82C247.43,220.34,247.27,217.15,247.27,213.86Z" transform="translate(-149.05 -195.68)"/><path class="f80fc5e4-8dc9-4c3b-a60c-96cd536b1142" d="M247.61,223.68c.4,10.36.71,20.57,1,30.66Z" transform="translate(-149.05 -195.68)"/><path class="f80fc5e4-8dc9-4c3b-a60c-96cd536b1142" d="M248.67,254.73l1.51,44C249.61,284,249.15,269.45,248.67,254.73Z" transform="translate(-149.05 -195.68)"/><path class="b2fe8eec-801c-494c-9b89-0a1f544a9bd9" d="M248.66,254.34c-.25-7.21-1.16-33.79-1.39-40.48" transform="translate(-149.05 -195.68)"/><line class="b2fe8eec-801c-494c-9b89-0a1f544a9bd9" x1="101.13" y1="103.04" x2="99.62" y2="59.05"/><line class="b2fe8eec-801c-494c-9b89-0a1f544a9bd9" x1="101.13" y1="103.1" x2="101.13" y2="103.04"/><path class="b2fe8eec-801c-494c-9b89-0a1f544a9bd9" d="M248.67,254.73c.48,14.72.94,29.27,1.51,44" transform="translate(-149.05 -195.68)"/><line class="b2fe8eec-801c-494c-9b89-0a1f544a9bd9" x1="99.62" y1="59.05" x2="99.61" y2="58.66"/><path class="b2fe8eec-801c-494c-9b89-0a1f544a9bd9" d="M247.27,213.86c.37,13.44,1,27.23,1.39,40.48" transform="translate(-149.05 -195.68)"/><polyline class="b2fe8eec-801c-494c-9b89-0a1f544a9bd9" points="101.08 102.95 101.13 103.04 101.13 103.04 109.25 118.9"/><line class="b2fe8eec-801c-494c-9b89-0a1f544a9bd9" x1="116.91" y1="101.74" x2="109.63" y2="119.03"/><line class="b2fe8eec-801c-494c-9b89-0a1f544a9bd9" x1="114.33" y1="17.41" x2="116.91" y2="101.74"/><path class="b2fe8eec-801c-494c-9b89-0a1f544a9bd9" d="M247.09,213.87l16.3-.77" transform="translate(-149.05 -195.68)"/></g><g id="b9ba41ef-d561-4689-91b1-14bceba96c5d" data-name="tip"><path d="M258.6,309l2-2.71c.32.38.63.77.94,1.16,0,0-3.13,8.55-3.15,8.58l-3-5.93,1.67-2.41Z" transform="translate(-149.05 -195.68)"/><polyline class="a5fe41f8-a7ec-4f2f-8a83-1e5b1059f02f" points="108.09 111.9 108.02 112 106.36 114.41"/><path class="a5fe41f8-a7ec-4f2f-8a83-1e5b1059f02f" d="M257,307.65,258.6,309l.06.06" transform="translate(-149.05 -195.68)"/><path class="a5fe41f8-a7ec-4f2f-8a83-1e5b1059f02f" d="M260.71,306.18l-.07.1-2,2.71" transform="translate(-149.05 -195.68)"/><path class="a5fe41f8-a7ec-4f2f-8a83-1e5b1059f02f" d="M260.64,306.28l1,1.21" transform="translate(-149.05 -195.68)"/><line class="a5fe41f8-a7ec-4f2f-8a83-1e5b1059f02f" x1="112.51" y1="111.79" x2="109.38" y2="120.34"/><line class="a5fe41f8-a7ec-4f2f-8a83-1e5b1059f02f" x1="106.36" y1="114.41" x2="109.38" y2="120.34"/></g><g id="a4ed567c-df85-44cb-9f18-292394c1416f" data-name="wood"><path class="b5d2ad33-ad6a-40eb-9972-35b949538910" d="M257.94,300.87l5.42-6.23.09.09,2.54,3.35.3-.32-5.73,12.83-.79-1.11L258,311.05l-1-1.33-1.41,1.53-5.63-12.66,1.57,1.45s2.81-3.05,2.84-3.07Z" transform="translate(-149.05 -195.68)"/></g><g id="a9764773-5221-446b-8cce-0a9c6efffab1" data-name="eraser"><path class="e414f724-5dd6-4e4a-8a55-a042bc285edf" d="M260.65,196.45a6.59,6.59,0,0,1,2.6,1.35l.24,7.16-16.16.85c0-.12-.21-6-.24-7.16l.78-.84a3.29,3.29,0,0,1,1.66-.72l1.58-.44A35.49,35.49,0,0,1,260.65,196.45Z" transform="translate(-149.05 -195.68)"/><path class="a9ba680a-19cb-482d-b5e0-2c6af7a835dd" d="M247.33,205.81c0-.12-.21-6-.24-7.16a3.52,3.52,0,0,1,2.44-1.56l1.58-.44,2.29-.31c3.21,0,7.08-.92,9.85,1.46l.24,7.16Z" transform="translate(-149.05 -195.68)"/></g><g id="b9cd57da-35bd-4d58-bf53-25481ba03e93" data-name="pencil-lines"><path class="f9f1fa23-0953-45ee-a585-f15505b47826" d="M252.63,215.2c.91,27.09,1,54.74,2,81.77l-4.51.08-1.94-81.5h0C249.59,215.38,251.24,215.37,252.63,215.2Z" transform="translate(-149.05 -195.68)"/><path class="eced384e-f16c-4753-805e-68fda2fcea06" d="M252.63,215.23c.91,27.08,1,54.72,2,81.74h0" transform="translate(-149.05 -195.68)"/><path class="f7512d00-83be-4d02-9733-bee2e3174e14" d="M254.66,297l-4.59.09" transform="translate(-149.05 -195.68)"/><path class="f7512d00-83be-4d02-9733-bee2e3174e14" d="M252.63,215.2c-1.41.17-3.09.18-4.56.36" transform="translate(-149.05 -195.68)"/><line class="f7512d00-83be-4d02-9733-bee2e3174e14" x1="99.08" y1="19.87" x2="101.02" y2="101.37"/></g><g id="b8113ce4-f70d-4c9f-8f5d-b4e4eaa78ef8" data-name="second-top-layer"><path class="a9c09158-9683-4d8c-8511-76cd18c96fb4" d="M263.11,205.21c0,.09.28,8.84.28,8.93l-16.07.93c0-.09-.28-8.83-.28-8.92Z" transform="translate(-149.05 -195.68)"/><path class="a8c6b3c5-9c8a-45ef-b225-6fae7ee20a53" d="M247.23,215.07l16.07-.93" transform="translate(-149.05 -195.68)"/><polyline class="a8c6b3c5-9c8a-45ef-b225-6fae7ee20a53" points="97.99 10.38 97.99 10.46 97.99 10.46 98.27 19.3"/><path class="a8c6b3c5-9c8a-45ef-b225-6fae7ee20a53" d="M263.1,205.13c0,.09.28,8.82.29,8.92" transform="translate(-149.05 -195.68)"/><path class="a8c6b3c5-9c8a-45ef-b225-6fae7ee20a53" d="M247.13,206.14l16.07-.93" transform="translate(-149.05 -195.68)"/></g><path class="e414f724-5dd6-4e4a-8a55-a042bc285edf" d="M190.72,254.88c.15-.36.56-.42.7-.23,10.09-3.59,18-12.09,18-24.82,0-7.56-2.76-14.24-7.71-18.61-6.1-5.52-14.83-8-28.35-8a131.71,131.71,0,0,0-24.28,2v25.42H161.7V214.13A52.14,52.14,0,0,1,174.2,213c13.38.14,22.54,5.67,22.54,18.32,0,11.19-8.58,18.61-22.1,18.61H161.7v-15H149.05v67H161.7V259.49h11.92c4.68.18,8.31,1.15,11.18,3.13A23.6,23.6,0,0,0,190.72,254.88Z" transform="translate(-149.05 -195.68)"/><path class="e414f724-5dd6-4e4a-8a55-a042bc285edf" d="M206.31,276.05c-2.29-10-6.7-16.94-14.05-19.65A25.28,25.28,0,0,1,186.4,264c3.83,2.94,6.21,7.88,7.85,15.5,2.76,12.22,4.94,20.65,6.54,23.41h13.09C211.84,299.16,209.52,289.72,206.31,276.05Z" transform="translate(-149.05 -195.68)"/><path class="f80fc5e4-8dc9-4c3b-a60c-96cd536b1142" d="M357.57,281.44c-4.53.17-9.07.22-13.61.18-2.5,9.23-10.12,14.72-18.52,14.72-13.81,0-20.79-11.77-20.79-26,0-15.56,7.85-27.19,21.08-27.19A18.81,18.81,0,0,1,344.19,258a22.41,22.41,0,0,1,.59,5.38v12.21c0,.68-.16,1.22-.2,1.84,2.41,0,4.82.07,7.23.08l2.54,0,1.26,0,.89,0c-1,0,.47,0,.67,0l.4,0V201.84H344.78v42h-.29c-3.2-5.67-10.47-10.76-21.23-10.76-17.16,0-29.69,14.39-29.55,37.8,0,21.38,11.08,35.77,28.1,35.77,11.48,0,20.06-6,24-13.81h.29l.58,12.2h11.48c-.43-4.79-.58-11.91-.58-18.16Z" transform="translate(-149.05 -195.68)"/><path class="f80fc5e4-8dc9-4c3b-a60c-96cd536b1142" d="M439.61,284.29H426.1c-.38,0-.76-.14-1.15-.16-3.14,7.61-9.9,12.21-17.47,12.21-13.81,0-20.79-11.77-20.79-26,0-15.56,7.86-27.19,21.08-27.19A18.82,18.82,0,0,1,426.24,258a22.91,22.91,0,0,1,.58,5.38v12.21a22.58,22.58,0,0,1-.48,4.5h13.27V201.84H426.82v42h-.29c-3.2-5.67-10.47-10.76-21.23-10.76-17.15,0-31.69,14.39-31.55,37.8,0,21.38,13.09,35.77,30.1,35.77,11.48,0,20.06-6,24-13.81h.29l.58,12.2h11.48c-.43-4.79-.58-11.91-.58-18.16Z" transform="translate(-149.05 -195.68)"/><path class="f80fc5e4-8dc9-4c3b-a60c-96cd536b1142" d="M460.89,201.84h12.79V305.06H460.89Z" transform="translate(-149.05 -195.68)"/><path class="f80fc5e4-8dc9-4c3b-a60c-96cd536b1142" d="M552.21,266.25c0-12.94-6.11-33.15-29.08-33.15-13.46,0-23.38,7.28-28.67,18.24,1.76,0,3.52.09,5.27.09,2.26,0,4.52,0,6.78-.07,3.13-5.08,8.12-9.1,15.6-9.1,14.39,0,17.88,12.65,17.74,20.79H502.48a30.22,30.22,0,0,1,1.88-7.44c-3.88,0-7.75-.09-11.62-.26A47.15,47.15,0,0,0,490.12,271c0,21.24,12.94,35.49,34.6,35.49,11.2,0,18.9-2.33,23.41-4.37L546,293c-4.8,2-10.32,3.63-19.48,3.63-12.79,0-23.84-7.12-24.13-24.42h49.43A49.14,49.14,0,0,0,552.21,266.25Z" transform="translate(-149.05 -195.68)"/><path class="f80fc5e4-8dc9-4c3b-a60c-96cd536b1142" d="M566.35,292a33.56,33.56,0,0,0,16.87,5.09c9.3,0,13.66-4.65,13.66-10.46,0-6.11-3.64-9.46-13.08-12.94-12.65-4.51-18.61-11.49-18.61-19.93,0-11.33,9.15-20.64,24.28-20.64a35.1,35.1,0,0,1,17.3,4.36l-3.2,9.3a27.43,27.43,0,0,0-14.39-4.06c-7.57,0-11.78,4.36-11.78,9.59,0,5.81,4.21,8.43,13.37,11.92,12.22,4.66,18.47,10.76,18.47,21.23,0,12.35-9.6,21.09-26.32,21.09-7.7,0-14.83-1.9-19.77-4.81Z" transform="translate(-149.05 -195.68)"/><path class="e414f724-5dd6-4e4a-8a55-a042bc285edf" d="M377.85,346.83a41.48,41.48,0,0,1-29.7-6.08c-2.14-1.34-4.26-2.63-6.68-2.33s-4.92,1.77-7.2,3.14c-4.4,2.65-8.78,6-13.68,6.58-4.22.47-8.19-1.16-10.77-5.85-2.09-3.81-3.58-8.83-7-10.85-4.47-2.61-8.87,1.45-12.75,4a10.87,10.87,0,0,1-5.95,2.15c-2.28,0-3.89-1.65-4.92-4.32s-1.61-5.49-3.29-7.52a7.68,7.68,0,0,0-5.1-2.81c-4.3-.52-8.68,1.89-12.42,4.48-.82.56-.1,2.22.72,1.66,3.41-2.36,7.33-4.51,11.24-4.26a6.35,6.35,0,0,1,4.71,2.5c1.53,2,2,4.79,3,7.23.9,2.24,2.28,4,4.14,4.64a7.85,7.85,0,0,0,5.66-.5,37.31,37.31,0,0,0,5.93-3.72c2.14-1.45,4.63-2.93,7.09-2.33,3.87,1,5.5,6.51,7.55,10.35a14.47,14.47,0,0,0,4.26,5.23,11.08,11.08,0,0,0,5.71,1.9c4.64.25,8.95-2.15,13.07-4.73a68.17,68.17,0,0,1,6.91-4,9.73,9.73,0,0,1,3.73-1.08,7.43,7.43,0,0,1,3.89,1.25,76.82,76.82,0,0,0,7.51,4.15,42.68,42.68,0,0,0,8.07,2.68c5.51,1.24,11-.3,16.63.31C391.67,350.15,378.75,346.66,377.85,346.83Z" transform="translate(-149.05 -195.68)"/></svg>